<?xml version="1.0" encoding="utf-8"?>
<!-- Generator: Adobe Illustrator 14.0.0, SVG Export Plug-In . SVG Version: 6.00 Build 43363)  -->
<!DOCTYPE svg PUBLIC "-//W3C//DTD SVG 1.1//EN" "http://www.w3.org/Graphics/SVG/1.1/DTD/svg11.dtd">
<svg version="1.1" id="Layer_1" xmlns="http://www.w3.org/2000/svg" xmlns:xlink="http://www.w3.org/1999/xlink" x="0px" y="0px"
	 width="172px" height="271px" viewBox="0 0 172 271" enable-background="new 0 0 172 271" xml:space="preserve">
<path fill="#17C0E9" d="M51.507,29.193c-6.159,15.085-15.792,26.698-19.826,43.906c16.25-33.522,55.116-86.437,99.139-62.316
	c24.214,13.264,34.828,48.393,36.826,83.562c3.918,68.984-34.131,152.554-83.565,168.539
	c-31.254,10.107-54.933-15.448-65.147-35.405C-12.609,165.854,19.299,64.833,51.507,29.193z M86.916,30.608
	C42.17,54.767,6.786,177.775,43.012,231.725c9.242,13.766,34.767,28.711,50.987,12.746c-37.363,5.635-51.54-31.48-53.82-60.9
	c5.614,26.404,24.913,58.283,55.237,45.32C140.445,209.639,162.753,113,143.568,56.104c4.002,24.058,2.783,56.78-8.498,73.647
	C150.557,88.536,136.482,3.849,86.916,30.608z"/>
</svg>
